<svg xmlns="http://www.w3.org/2000/svg" viewBox="0 0 36.43 32.42"><defs><style>.cls-1{fill:#444;}</style></defs><title>career_planning</title><g id="Layer_2" data-name="Layer 2"><g id="Layer_1-2" data-name="Layer 1"><path class="cls-1" d="M32.83,32.42H3.59a1.88,1.88,0,0,1-1.87-1.87v-13a.7.7,0,0,1,1.4,0v13a.48.48,0,0,0,.47.47H32.83a.49.49,0,0,0,.47-.47V17.33a.7.7,0,0,1,1.4,0V30.55A1.88,1.88,0,0,1,32.83,32.42Z"/><path class="cls-1" d="M23.52,6.69a.7.7,0,0,1-.7-.7V2.62A1.24,1.24,0,0,0,21.6,1.4H14.83a1.22,1.22,0,0,0-1.22,1.22V6a.7.7,0,0,1-1.4,0V2.62A2.63,2.63,0,0,1,14.83,0H21.6a2.63,2.63,0,0,1,2.62,2.62V6A.7.7,0,0,1,23.52,6.69Z"/><path class="cls-1" d="M15,20.65h0A37.47,37.47,0,0,1,.4,17.19a.7.7,0,0,1-.4-.63L0,7.22A1.88,1.88,0,0,1,1.89,5.35H34.53a1.88,1.88,0,0,1,1.87,1.87l0,9.09a.7.7,0,0,1-.37.62,35.35,35.35,0,0,1-14.77,3.71.69.69,0,0,1-.73-.66.7.7,0,0,1,.66-.73A34.29,34.29,0,0,0,35,15.89l0-8.67a.48.48,0,0,0-.47-.48H1.89a.48.48,0,0,0-.47.47l0,8.9A36.42,36.42,0,0,0,15,19.25a.7.7,0,0,1,0,1.4Z"/><path class="cls-1" d="M20.32,23.17H16.1a1.35,1.35,0,0,1-1.35-1.35V18.92a1.35,1.35,0,0,1,1.35-1.35h4.22a1.35,1.35,0,0,1,1.35,1.35v2.89A1.35,1.35,0,0,1,20.32,23.17ZM16.15,19v2.84l4.17,0,0-2.84Zm0,0h0Z"/></g></g></svg>