<svg xmlns="http://www.w3.org/2000/svg" viewBox="0 0 35.42 35.26"><defs><style>.cls-1{fill:#444;}</style></defs><title>career_paths</title><g id="Layer_2" data-name="Layer 2"><g id="Layer_1-2" data-name="Layer 1"><path class="cls-1" d="M15.41,35.26h-.53a2,2,0,0,1-2-2V2a2,2,0,0,1,2-2h.53a2,2,0,0,1,2,2V33.29A2,2,0,0,1,15.41,35.26ZM14.88,1.4a.58.58,0,0,0-.57.57V33.29a.58.58,0,0,0,.57.57h.53a.58.58,0,0,0,.57-.57V2a.58.58,0,0,0-.57-.57Z"/><path class="cls-1" d="M31.76,11.74h-14a.7.7,0,0,1,0-1.4H31.43L33.8,7.5,31.43,4.67H17.77a.7.7,0,0,1,0-1.4h14a.7.7,0,0,1,.54.25l3,3.54a.7.7,0,0,1,0,.9l-3,3.54A.7.7,0,0,1,31.76,11.74Z"/><path class="cls-1" d="M26.08,22.08H17.77a.7.7,0,1,1,0-1.4h8l2.38-2.84L25.75,15h-8a.7.7,0,1,1,0-1.4h8.31a.7.7,0,0,1,.54.25l3,3.54a.7.7,0,0,1,0,.9l-3,3.54A.7.7,0,0,1,26.08,22.08Z"/><path class="cls-1" d="M12.59,15H3.66a.7.7,0,0,1-.54-.25l-3-3.54a.7.7,0,0,1,0-.9l3-3.54a.7.7,0,0,1,.54-.25h8.93a.7.7,0,0,1,0,1.4H4L1.61,10.75,4,13.58h8.6a.7.7,0,0,1,0,1.4Z"/></g></g></svg>