<svg xmlns="http://www.w3.org/2000/svg" viewBox="0 0 31.41 35.13"><defs><style>.cls-1{fill:#444;}</style></defs><title>criminology_careers</title><g id="Layer_2" data-name="Layer 2"><g id="Layer_1-2" data-name="Layer 1"><path class="cls-1" d="M23.58,34.55A.7.7,0,0,1,23,34.3a16.42,16.42,0,0,1-2.54-4.15c-2.66-1.42-6.49-10.61-6.07-13.8.19-1.46,1.19-1.58,1.49-1.58h0c2.84,0,3.32,3.14,3.88,6.78s1.26,8.25,4.29,11.84a.7.7,0,0,1-.53,1.15ZM15.95,16.18h0c-.12.11-.32,1,.29,3.28a29.66,29.66,0,0,0,3.19,7.44,50.3,50.3,0,0,1-1-5.14C17.9,18.2,17.51,16.18,15.95,16.18Z"/><path class="cls-1" d="M20.08,35.13a.7.7,0,0,1-.57-.29A68,68,0,0,1,11.81,20c-1-2.69-.29-5.76,1.62-7.3a4.52,4.52,0,0,1,5.47,0c2.61,1.63,3.5,5.57,4.35,9.39.2.9.4,1.8.63,2.67a28,28,0,0,0,3,7.4.7.7,0,0,1-1.2.71,29.32,29.32,0,0,1-3.11-7.77c-.23-.88-.43-1.8-.64-2.71-.79-3.53-1.61-7.19-3.73-8.51a3.16,3.16,0,0,0-3.85-.07c-1.44,1.16-1.94,3.63-1.18,5.74A66.4,66.4,0,0,0,20.65,34a.7.7,0,0,1-.57,1.11Z"/><path class="cls-1" d="M16.49,35.13a.7.7,0,0,1-.57-.3A48.61,48.61,0,0,1,8.8,17.66,7.89,7.89,0,0,1,12,10.09,7.23,7.23,0,0,1,20,10c3.39,2,5.15,7.28,6.42,12.21l.37,1.46a47.68,47.68,0,0,0,2,6.76A.7.7,0,1,1,27.5,31a48.6,48.6,0,0,1-2.12-7L25,22.6C23.82,18,22.2,13,19.26,11.26a5.81,5.81,0,0,0-6.42,0,6.54,6.54,0,0,0-2.65,6.19A47,47,0,0,0,17.06,34a.7.7,0,0,1-.57,1.1Z"/><path class="cls-1" d="M1.76,29.17a.7.7,0,0,1-.59-1.08c3.51-5.45,5.2-9.78,5.16-13.25a9.19,9.19,0,0,1,4.55-7.56c3.07-1.82,6.78-1.76,10.45.19,4,2.2,6.68,7.82,7.85,12.35.37,1.44.65,2.92.91,4.35.21,1.12.4,2.17.64,3.2a.7.7,0,1,1-1.36.31c-.24-1.06-.45-2.18-.65-3.26-.26-1.41-.53-2.86-.89-4.25-1.37-5.34-4.18-9.84-7.15-11.47C17.46,7,14.23,6.92,11.6,8.49a7.75,7.75,0,0,0-3.87,6.35c0,3.74-1.72,8.32-5.38,14A.7.7,0,0,1,1.76,29.17Z"/><path class="cls-1" d="M.7,24a.7.7,0,0,1-.61-1A29.09,29.09,0,0,0,3.75,12.38a11.92,11.92,0,0,1,6.4-8.32c3.79-1.94,8.24-1.81,12.54.37,3.72,1.93,7.22,7.09,8.7,12.83a.7.7,0,0,1-1.36.35c-1.37-5.3-4.65-10.2-8-11.93-5-2.53-8.87-1.6-11.26-.37a10.48,10.48,0,0,0-5.66,7.27,30.44,30.44,0,0,1-3.83,11A.7.7,0,0,1,.7,24Z"/><path class="cls-1" d="M.7,15.25l-.15,0A.7.7,0,0,1,0,14.41c.12-.55.23-1.11.34-1.66.26-1.28.52-2.61.9-4a11.19,11.19,0,0,1,5.53-6.7c4.38-2.44,10.4-2.72,17-.8,3.64,1.07,6.14,5.35,7.59,8.76a.7.7,0,0,1-1.29.55c-1.89-4.42-4.26-7.25-6.7-8C17.15.79,11.51,1,7.47,3.28A9.81,9.81,0,0,0,2.6,9.14C2.24,10.46,2,11.76,1.73,13c-.11.56-.22,1.12-.34,1.68A.7.7,0,0,1,.7,15.25Z"/><path class="cls-1" d="M13.09,35.13a.7.7,0,0,1-.59-.32A40.13,40.13,0,0,1,8,24.89a34.53,34.53,0,0,1-4,6.47.7.7,0,0,1-1.12-.83,28.22,28.22,0,0,0,4.47-7.94A.7.7,0,0,1,8,22.11H8a.7.7,0,0,1,.66.48L9,23.7A40.9,40.9,0,0,0,13.68,34a.7.7,0,0,1-.58,1.08Z"/><path class="cls-1" d="M9.6,34.7l0,0c-.51-1-1.86-3.51-2.35-3.67A10.41,10.41,0,0,0,6,32.86L6,33a.7.7,0,1,1-1.21-.7l.05-.09c.92-1.6,1.49-2.58,2.45-2.58h0c1,0,1.8,1.12,3.54,4.41l-.59.38Z"/></g></g></svg>