<svg xmlns="http://www.w3.org/2000/svg" viewBox="0 0 33.81 34.11"><defs><style>.cls-1{fill:#444;}</style></defs><title>frugal_living</title><g id="Layer_2" data-name="Layer 2"><g id="Layer_1-2" data-name="Layer 1"><path class="cls-1" d="M15.91,34.11a4.86,4.86,0,0,1-2.07-.36c-1.45-.38-2.6-.74-3.62-1.07A14.16,14.16,0,0,0,3,31.75a.7.7,0,1,1-.18-1.39,15.45,15.45,0,0,1,7.85,1c1,.33,2.18.7,3.63,1.07a.69.69,0,0,1,.18.08c.65.39,3.63.4,5.89-1L32,24.09a.61.61,0,0,0,.38-.56.69.69,0,0,0-.38-.62c-.55-.28-1.51,0-2.58.78a.7.7,0,0,1-1.06-.82c.21-.53.21-1,0-1.15s-1-.17-1.83.43l-.74.51a.69.69,0,0,1-.72,0,.7.7,0,0,1-.38-.62c0-.3-.06-.52-.16-.58s-.73-.1-1.88.52l-4.4,2.34a.7.7,0,0,1-.66-1.24L22,20.78c1.43-.76,2.52-.92,3.26-.48a1.57,1.57,0,0,1,.59.63c1.28-.84,2.57-1,3.39-.3a1.84,1.84,0,0,1,.67,1.18,3.09,3.09,0,0,1,2.75-.13,2.09,2.09,0,0,1,1.15,1.87,2,2,0,0,1-1.09,1.77L21.09,32.65A10.08,10.08,0,0,1,15.91,34.11Z"/><path class="cls-1" d="M16.95,28.6c-2.42,0-4.52-.94-6.92-2.16a.7.7,0,1,1,.64-1.25c4.21,2.15,6.62,2.76,10.61.94.29-.11.71-.33.65-.69a.49.49,0,0,0-.4-.41c-1-.06-1.75-.07-2.41-.08-2.69-.05-3.69-.07-7.08-2.58L9.13,20.22a3.58,3.58,0,0,0-2.8.07L1,22.47a.7.7,0,1,1-.53-1.3L5.8,19a4.8,4.8,0,0,1,4.16.1l2.91,2.15c3,2.24,3.71,2.26,6.27,2.3.68,0,1.48,0,2.47.09a1.87,1.87,0,0,1,1.7,1.59,2,2,0,0,1-1.49,2.19A11.58,11.58,0,0,1,16.95,28.6Z"/><path class="cls-1" d="M16.9,6a.7.7,0,0,1-.7-.7V3.45a.7.7,0,0,1,1.4,0V5.31A.7.7,0,0,1,16.9,6Z"/><path class="cls-1" d="M16.9,16a.7.7,0,0,1-.7-.7V13.41a.7.7,0,0,1,1.4,0v1.86A.7.7,0,0,1,16.9,16Z"/><path class="cls-1" d="M16.9,18.72a9.36,9.36,0,1,1,9.36-9.36A9.37,9.37,0,0,1,16.9,18.72Zm0-17.32a8,8,0,1,0,8,8A8,8,0,0,0,16.9,1.4Z"/><path class="cls-1" d="M17.27,13.82a6.14,6.14,0,0,1-.7,0,11.78,11.78,0,0,1-2.38-.62L14,13.11a.7.7,0,1,1,.44-1.33l.16.05a10.73,10.73,0,0,0,2.09.55,2.5,2.5,0,0,0,2.41-.67.73.73,0,0,0,.05-.79,2.48,2.48,0,0,0-2.25-.87h0c-1.71,0-3-.58-3.54-1.6a2.12,2.12,0,0,1,.14-2.21,3.87,3.87,0,0,1,3.76-1.3,11.69,11.69,0,0,1,2.38.62l.17.05a.7.7,0,0,1-.44,1.33l-.17-.05a10.63,10.63,0,0,0-2.1-.55,2.55,2.55,0,0,0-2.45.7.72.72,0,0,0-.06.77c.22.42.94.86,2.3.86h0a3.72,3.72,0,0,1,3.48,1.61,2.13,2.13,0,0,1-.13,2.23A3.53,3.53,0,0,1,17.27,13.82Z"/></g></g></svg>