<svg xmlns="http://www.w3.org/2000/svg" viewBox="0 0 33.95 31.19"><defs><style>.cls-1{fill:#444;}</style></defs><title>job_searching</title><g id="Layer_2" data-name="Layer 2"><g id="Layer_1-2" data-name="Layer 1"><path class="cls-1" d="M31.71,31.19a.7.7,0,0,1-.5-.21l-4-4a.7.7,0,0,1,0-1l1.57-1.52a.7.7,0,0,1,1,0l3.93,3.93a.7.7,0,0,1,0,1L32.2,31A.7.7,0,0,1,31.71,31.19Zm-3-4.65,3,3,.55-.55-3-3Z"/><path class="cls-1" d="M23.85,28.35a7.26,7.26,0,1,1,7.26-7.26A7.27,7.27,0,0,1,23.85,28.35Zm0-13.12a5.86,5.86,0,1,0,5.86,5.86A5.87,5.87,0,0,0,23.85,15.23Z"/><path class="cls-1" d="M15.32,25H1.59A1.59,1.59,0,0,1,0,23.4V5.66A1.6,1.6,0,0,1,1.61,4.07H26.43A1.6,1.6,0,0,1,28,5.66v7.15a.7.7,0,1,1-1.4,0V5.66a.2.2,0,0,0-.19-.19H1.61a.2.2,0,0,0-.19.19V23.4a.2.2,0,0,0,.19.19H15.32a.7.7,0,1,1,0,1.4Z"/><path class="cls-1" d="M18.05,5.42a.7.7,0,0,1-.7-.7V2.16a.77.77,0,0,0-.76-.76H11.45a.76.76,0,0,0-.76.76V4.72a.7.7,0,0,1-1.4,0V2.16A2.16,2.16,0,0,1,11.45,0h5.14a2.16,2.16,0,0,1,2.16,2.16V4.72A.7.7,0,0,1,18.05,5.42Z"/></g></g></svg>