<svg xmlns="http://www.w3.org/2000/svg" viewBox="0 0 36.27 36.77"><defs><style>.cls-1{fill:#444;}</style></defs><title>succeeding_at_work</title><g id="Layer_2" data-name="Layer 2"><g id="Layer_1-2" data-name="Layer 1"><path class="cls-1" d="M11.71,30.11a2.72,2.72,0,0,1-.49,0A2.67,2.67,0,0,1,9,27.18a.71.71,0,0,1,0-.21l1.71-4.31.08-6.5L9.89,18A2.46,2.46,0,0,1,8,19.84a2,2,0,0,1-1.87-.77,1.93,1.93,0,0,1-.37-1.89L8.63,10.7c.75-2.74,3.19-2.16,4.5-1.86A6,6,0,0,0,14,9l.13,0c2.1.49,4.18-.85,6-2,.53-.34,1-.67,1.52-.94A2.36,2.36,0,0,1,25,6.82a2.42,2.42,0,0,1-1.1,3.33l-5,3.18,0,1.25,3.19.16a2.79,2.79,0,0,1,2.32,2.74v6a2.31,2.31,0,0,1-2.5,2.32,2.58,2.58,0,0,1-2.8-2.32l0-3.21L16,20.15V22.7a.69.69,0,0,1,0,.2l-1.42,4.81A3,3,0,0,1,11.71,30.11Zm-1.29-2.73a1.26,1.26,0,0,0,1.05,1.3c.62.11,1.41-.19,1.76-1.37l1.39-4.72V19.41a.7.7,0,0,1,.22-.51.79.79,0,0,1,.52-.19l4.54.24a.7.7,0,0,1,.66.71l-.06,3.87c0,.54.72.91,1.4.91.41,0,1.1-.12,1.1-.92v-6c0-.57-.55-1.32-1-1.34l-3.85-.19a.7.7,0,0,1-.66-.69l0-2.3a.7.7,0,0,1,.33-.6L23.17,9c.8-.48.83-1.07.62-1.43a1,1,0,0,0-1.39-.25c-.46.26-.95.57-1.45.9-2,1.26-4.38,2.82-7,2.24a7.56,7.56,0,0,1-1.1-.2c-1.67-.39-2.5-.43-2.84.9l0,.1L7.1,17.71a.57.57,0,0,0,.16.47.67.67,0,0,0,.56.27c.29,0,.58-.4.8-1L11,12.91a.7.7,0,0,1,1.32.33l-.12,9.58a.7.7,0,0,1,0,.25Zm4.9-4.68h0Z"/><path class="cls-1" d="M15.45,8.26a4.13,4.13,0,1,1,4.13-4.13A4.13,4.13,0,0,1,15.45,8.26Zm0-6.86a2.73,2.73,0,1,0,2.73,2.73A2.73,2.73,0,0,0,15.45,1.4Z"/><path class="cls-1" d="M9.51,36.77H.7a.7.7,0,1,1,0-1.4H8.8l-.05-3.7a.7.7,0,0,1,.7-.71h0l8,0-.05-3.69a.7.7,0,0,1,.7-.71h0l8,0L26.12,23a.7.7,0,0,1,.7-.71h0l8.75.05a.7.7,0,0,1,0,1.4h0l-8,0,.05,3.69a.7.7,0,0,1-.7.71h0l-8,0,.05,3.69a.7.7,0,0,1-.7.71h0l-8,0,.05,3.69a.7.7,0,0,1-.7.71Z"/><path class="cls-1" d="M18.2,36.77a.7.7,0,0,1-.7-.7V30.23a.7.7,0,1,1,1.4,0v5.84A.7.7,0,0,1,18.2,36.77Z"/><path class="cls-1" d="M26.88,36.77a.7.7,0,0,1-.7-.7V26a.7.7,0,1,1,1.4,0V36.07A.7.7,0,0,1,26.88,36.77Z"/><path class="cls-1" d="M35.57,36.77a.7.7,0,0,1-.7-.7V23a.7.7,0,0,1,1.4,0V36.07A.7.7,0,0,1,35.57,36.77Z"/></g></g></svg>